<svg xmlns="http://www.w3.org/2000/svg" viewBox="0 0 20 16" shape-rendering="crispEdges" aria-label="Nori the ostrich">
  <g fill="#7B68EE">
    <rect x="8" y="0" width="2" height="1"/>
    <rect x="7" y="1" width="1" height="2"/>
    <rect x="10" y="1" width="1" height="2"/>
    <rect x="6" y="3" width="2" height="1"/>
    <rect x="10" y="3" width="2" height="1"/>
    <rect x="4" y="4" width="10" height="1"/>
    <rect x="3" y="5" width="1" height="3"/>
    <rect x="14" y="5" width="1" height="3"/>
    <rect x="7" y="6" width="2" height="1"/>
    <rect x="4" y="8" width="2" height="1"/>
    <rect x="12" y="8" width="2" height="1"/>
    <rect x="6" y="9" width="6" height="1"/>
    <rect x="6" y="10" width="1" height="1"/>
    <rect x="11" y="10" width="1" height="1"/>
    <rect x="5" y="11" width="2" height="1"/>
    <rect x="11" y="11" width="2" height="1"/>
    <rect x="5" y="12" width="1" height="2"/>
    <rect x="12" y="12" width="1" height="2"/>
    <rect x="4" y="14" width="3" height="1"/>
    <rect x="9" y="14" width="4" height="1"/>
    <rect x="3" y="15" width="1" height="1"/>
    <rect x="6" y="15" width="1" height="1"/>
    <rect x="9" y="15" width="1" height="1"/>
    <rect x="12" y="15" width="1" height="1"/>
  </g>
  <g fill="#C4BBFF">
    <rect x="8" y="1" width="2" height="2"/>
    <rect x="8" y="3" width="2" height="1"/>
    <rect x="4" y="5" width="10" height="1"/>
    <rect x="4" y="6" width="3" height="1"/>
    <rect x="9" y="6" width="5" height="1"/>
    <rect x="4" y="7" width="10" height="1"/>
    <rect x="6" y="8" width="6" height="1"/>
    <rect x="7" y="10" width="4" height="1"/>
    <rect x="7" y="11" width="4" height="1"/>
    <rect x="6" y="12" width="6" height="1"/>
    <rect x="6" y="13" width="1" height="1"/>
    <rect x="9" y="13" width="3" height="1"/>
  </g>
</svg>
